<svg width="40" height="40" viewBox="0 0 40 40" fill="none" xmlns="http://www.w3.org/2000/svg">
<g clip-path="url(#clip0)">
<path d="M2.06668 40.0001C1.53977 40.0001 1.01285 39.7997 0.612523 39.3964C-0.191154 38.5927 -0.191154 37.2898 0.612523 36.4861L36.4967 0.602744C37.3004 -0.200915 38.6033 -0.200915 39.407 0.602744C40.2107 1.4064 40.2107 2.70933 39.407 3.5135L3.52334 39.3964C3.11999 39.7972 2.59308 40.0001 2.06668 40.0001Z" fill="white"/>
<path d="M37.9525 40.0001C37.4256 40.0001 36.8992 39.7997 36.4984 39.3964L0.61251 3.5135C-0.191149 2.70933 -0.191149 1.4064 0.61251 0.602744C1.41617 -0.200915 2.7191 -0.200915 3.52326 0.602744L39.4061 36.4861C40.2098 37.2898 40.2098 38.5927 39.4061 39.3964C39.0028 39.7972 38.4764 40.0001 37.9525 40.0001Z" fill="white"/>
</g>
<defs>
<clipPath id="clip0">
<rect width="40" height="40" fill="white"/>
</clipPath>
</defs>
</svg>
