<svg width="30" height="30" viewBox="0 0 30 30" fill="none" xmlns="http://www.w3.org/2000/svg">
<path d="M1.55001 30.0001C1.15483 30.0001 0.759638 29.8498 0.459393 29.5473C-0.143365 28.9445 -0.143365 27.9673 0.459393 27.3646L27.3725 0.452058C27.9753 -0.150686 28.9525 -0.150686 29.5553 0.452058C30.158 1.0548 30.158 2.032 29.5553 2.63513L2.64251 29.5473C2.33999 29.8479 1.94481 30.0001 1.55001 30.0001Z" fill="#6984A4"/>
<path d="M28.4644 30.0001C28.0692 30.0001 27.6744 29.8498 27.3738 29.5473L0.459382 2.63513C-0.143362 2.032 -0.143362 1.0548 0.459382 0.452058C1.06213 -0.150686 2.03932 -0.150686 2.64244 0.452058L29.5546 27.3646C30.1573 27.9673 30.1573 28.9445 29.5546 29.5473C29.2521 29.8479 28.8573 30.0001 28.4644 30.0001Z" fill="#6984A4"/>
</svg>
