<svg width="75" height="75" viewBox="0 0 102 102" fill="none" xmlns="http://www.w3.org/2000/svg">
<circle opacity="0.2" r="1.05546" transform="matrix(-1 1.13796e-06 1.05367e-06 -1 51.2821 84.1521)" fill="white" stroke="white" stroke-width="0.5"/>
<circle opacity="0.2" r="1.05546" transform="matrix(-1 1.13796e-06 1.05367e-06 -1 84.1521 51.2819)" fill="white" stroke="white" stroke-width="0.5"/>
<circle opacity="0.2" r="1.05546" transform="matrix(-1 1.13796e-06 1.05367e-06 -1 51.2821 18.4118)" fill="white" stroke="white" stroke-width="0.5"/>
<circle opacity="0.2" r="1.05546" transform="matrix(-1 1.13796e-06 1.05367e-06 -1 18.412 51.2819)" fill="white" stroke="white" stroke-width="0.5"/>
<circle opacity="0.2" r="1.05546" transform="matrix(-0.707108 -0.707106 0.707108 -0.707106 18.2821 84.2818)" fill="white" stroke="white" stroke-width="0.5"/>
<g filter="url(#filter0_d)">
<circle r="1.46338" transform="matrix(-0.707108 -0.707106 0.707108 -0.707106 18.282 84.282)" fill="#FBD5A9"/>
<circle r="2.21338" transform="matrix(-0.707108 -0.707106 0.707108 -0.707106 18.282 84.282)" stroke="#FBD5A9" stroke-width="1.5"/>
</g>
<circle opacity="0.2" r="1.05546" transform="matrix(-0.707108 -0.707106 0.707108 -0.707106 84.2821 84.2818)" fill="white" stroke="white" stroke-width="0.5"/>
<g filter="url(#filter1_d)">
<circle r="1.46338" transform="matrix(-0.707108 -0.707106 0.707108 -0.707106 84.282 84.282)" fill="#FBD5A9"/>
<circle r="2.21338" transform="matrix(-0.707108 -0.707106 0.707108 -0.707106 84.282 84.282)" stroke="#FBD5A9" stroke-width="1.5"/>
</g>
<circle opacity="0.2" r="1.05546" transform="matrix(-0.707108 -0.707106 0.707108 -0.707106 84.2821 18.2818)" fill="white" stroke="white" stroke-width="0.5"/>
<g filter="url(#filter2_d)">
<circle r="1.46338" transform="matrix(-0.707108 -0.707106 0.707108 -0.707106 84.282 18.282)" fill="#FBD5A9"/>
<circle r="2.21338" transform="matrix(-0.707108 -0.707106 0.707108 -0.707106 84.282 18.282)" stroke="#FBD5A9" stroke-width="1.5"/>
</g>
<circle opacity="0.2" r="1.05546" transform="matrix(-0.707108 -0.707106 0.707108 -0.707106 18.2821 18.2818)" fill="white" stroke="white" stroke-width="0.5"/>
<g filter="url(#filter3_d)">
<circle r="1.46338" transform="matrix(-0.707108 -0.707106 0.707108 -0.707106 18.282 18.282)" fill="#FBD5A9"/>
<circle r="2.21338" transform="matrix(-0.707108 -0.707106 0.707108 -0.707106 18.282 18.282)" stroke="#FBD5A9" stroke-width="1.5"/>
</g>
<circle opacity="0.2" r="1.05546" transform="matrix(-1 1.13796e-06 1.05367e-06 -1 51.2821 94.6374)" fill="white" stroke="white" stroke-width="0.5"/>
<g filter="url(#filter4_d)">
<circle r="1.46338" transform="matrix(-1 1.13796e-06 1.05367e-06 -1 51.2821 94.6377)" fill="#FBD5A9"/>
<circle r="2.21338" transform="matrix(-1 1.13796e-06 1.05367e-06 -1 51.2821 94.6377)" stroke="#FBD5A9" stroke-width="1.5"/>
</g>
<circle opacity="0.2" r="1.05546" transform="matrix(-1 1.13796e-06 1.05367e-06 -1 94.6374 51.2819)" fill="white" stroke="white" stroke-width="0.5"/>
<g filter="url(#filter5_d)">
<circle r="1.46338" transform="matrix(-1 1.13796e-06 1.05367e-06 -1 94.6373 51.2822)" fill="#FBD5A9"/>
<circle r="2.21338" transform="matrix(-1 1.13796e-06 1.05367e-06 -1 94.6373 51.2822)" stroke="#FBD5A9" stroke-width="1.5"/>
</g>
<circle opacity="0.2" r="1.05546" transform="matrix(-1 1.13796e-06 1.05367e-06 -1 51.2821 7.92647)" fill="white" stroke="white" stroke-width="0.5"/>
<g filter="url(#filter6_d)">
<circle r="1.46338" transform="matrix(-1 1.13796e-06 1.05367e-06 -1 51.2821 7.92676)" fill="#FBD5A9"/>
<circle r="2.21338" transform="matrix(-1 1.13796e-06 1.05367e-06 -1 51.2821 7.92676)" stroke="#FBD5A9" stroke-width="1.5"/>
</g>
<circle opacity="0.2" r="1.05546" transform="matrix(-1 1.13796e-06 1.05367e-06 -1 7.92678 51.2819)" fill="white" stroke="white" stroke-width="0.5"/>
<g filter="url(#filter7_d)">
<circle r="1.46338" transform="matrix(-1 1.13796e-06 1.05367e-06 -1 7.92674 51.2822)" fill="#FBD5A9"/>
<circle r="2.21338" transform="matrix(-1 1.13796e-06 1.05367e-06 -1 7.92674 51.2822)" stroke="#FBD5A9" stroke-width="1.5"/>
</g>
<circle opacity="0.2" r="1.05546" transform="matrix(-0.707108 -0.707106 0.707108 -0.707106 37.2821 65.2818)" fill="white" stroke="white" stroke-width="0.5"/>
<circle opacity="0.2" r="1.05546" transform="matrix(-0.707108 -0.707106 0.707108 -0.707106 37.2821 37.2818)" fill="white" stroke="white" stroke-width="0.5"/>
<circle opacity="0.2" r="1.05546" transform="matrix(-0.707108 -0.707106 0.707108 -0.707106 65.2821 37.2818)" fill="white" stroke="white" stroke-width="0.5"/>
<circle opacity="0.2" r="1.05546" transform="matrix(-0.707108 -0.707106 0.707108 -0.707106 65.2821 65.2818)" fill="white" stroke="white" stroke-width="0.5"/>
<circle opacity="0.2" r="1.05546" transform="matrix(-1 1.13796e-06 1.05367e-06 -1 51.2821 71.0808)" fill="white" stroke="white" stroke-width="0.5"/>
<circle opacity="0.2" r="1.05546" transform="matrix(-1 1.13796e-06 1.05367e-06 -1 31.4831 51.2819)" fill="white" stroke="white" stroke-width="0.5"/>
<circle opacity="0.2" r="1.05546" transform="matrix(-1 1.13796e-06 1.05367e-06 -1 51.2821 31.4826)" fill="white" stroke="white" stroke-width="0.5"/>
<circle opacity="0.2" r="1.05546" transform="matrix(-1 1.13796e-06 1.05367e-06 -1 71.0811 51.2819)" fill="white" stroke="white" stroke-width="0.5"/>
<circle opacity="0.2" r="1.05546" transform="matrix(-0.707108 -0.707106 0.707108 -0.707106 58.2821 44.2818)" fill="white" stroke="white" stroke-width="0.5"/>
<g filter="url(#filter8_d)">
<circle r="1.46338" transform="matrix(-0.707107 -0.707106 0.707107 -0.707106 58.2821 44.282)" fill="white"/>
</g>
<circle opacity="0.2" r="1.05546" transform="matrix(-0.707108 -0.707106 0.707108 -0.707106 44.2821 44.2818)" fill="white" stroke="white" stroke-width="0.5"/>
<g filter="url(#filter9_d)">
<circle r="1.46338" transform="matrix(-0.707107 -0.707106 0.707107 -0.707106 44.2821 44.282)" fill="white"/>
</g>
<circle opacity="0.2" r="1.05546" transform="matrix(-0.707108 -0.707106 0.707108 -0.707106 44.2821 58.2818)" fill="white" stroke="white" stroke-width="0.5"/>
<g filter="url(#filter10_d)">
<circle r="1.46338" transform="matrix(-0.707107 -0.707106 0.707107 -0.707106 44.2821 58.282)" fill="white"/>
</g>
<circle opacity="0.2" r="1.05546" transform="matrix(-0.707108 -0.707106 0.707108 -0.707106 58.2821 58.2818)" fill="white" stroke="white" stroke-width="0.5"/>
<g filter="url(#filter11_d)">
<circle r="1.46338" transform="matrix(-0.707107 -0.707106 0.707107 -0.707106 58.2821 58.282)" fill="white"/>
</g>
<circle opacity="0.2" r="1.05546" transform="matrix(-1 1.13796e-06 1.05367e-06 -1 51.2821 41.3825)" fill="white" stroke="white" stroke-width="0.5"/>
<g filter="url(#filter12_d)">
<circle r="1.46338" transform="matrix(-1 5.47909e-07 4.63615e-07 -1 51.2821 41.3828)" fill="white"/>
</g>
<circle opacity="0.2" r="1.05546" transform="matrix(-1 1.13796e-06 1.05367e-06 -1 41.3826 51.2819)" fill="white" stroke="white" stroke-width="0.5"/>
<g filter="url(#filter13_d)">
<circle r="1.46338" transform="matrix(-1 5.47909e-07 4.63615e-07 -1 41.3826 51.2822)" fill="white"/>
</g>
<circle opacity="0.2" r="1.05546" transform="matrix(-1 1.13796e-06 1.05367e-06 -1 51.2821 61.1814)" fill="white" stroke="white" stroke-width="0.5"/>
<g filter="url(#filter14_d)">
<circle r="1.46338" transform="matrix(-1 5.47909e-07 4.63615e-07 -1 51.2821 61.1816)" fill="white"/>
</g>
<circle opacity="0.2" r="1.05546" transform="matrix(-1 1.13796e-06 1.05367e-06 -1 61.1815 51.2819)" fill="white" stroke="white" stroke-width="0.5"/>
<g filter="url(#filter15_d)">
<circle r="1.46338" transform="matrix(-1 5.47909e-07 4.63615e-07 -1 61.1815 51.2822)" fill="white"/>
</g>
<defs>
<filter id="filter0_d" x="11.3187" y="77.3188" width="13.9268" height="13.9267" filterUnits="userSpaceOnUse" color-interpolation-filters="sRGB">
<feFlood flood-opacity="0" result="BackgroundImageFix"/>
<feColorMatrix in="SourceAlpha" type="matrix" values="0 0 0 0 0 0 0 0 0 0 0 0 0 0 0 0 0 0 127 0"/>
<feOffset/>
<feGaussianBlur stdDeviation="2"/>
<feColorMatrix type="matrix" values="0 0 0 0 0.980392 0 0 0 0 0.835294 0 0 0 0 0.752941 0 0 0 0.8 0"/>
<feBlend mode="normal" in2="BackgroundImageFix" result="effect1_dropShadow"/>
<feBlend mode="normal" in="SourceGraphic" in2="effect1_dropShadow" result="shape"/>
</filter>
<filter id="filter1_d" x="77.3187" y="77.3188" width="13.9268" height="13.9267" filterUnits="userSpaceOnUse" color-interpolation-filters="sRGB">
<feFlood flood-opacity="0" result="BackgroundImageFix"/>
<feColorMatrix in="SourceAlpha" type="matrix" values="0 0 0 0 0 0 0 0 0 0 0 0 0 0 0 0 0 0 127 0"/>
<feOffset/>
<feGaussianBlur stdDeviation="2"/>
<feColorMatrix type="matrix" values="0 0 0 0 0.980392 0 0 0 0 0.835294 0 0 0 0 0.752941 0 0 0 0.8 0"/>
<feBlend mode="normal" in2="BackgroundImageFix" result="effect1_dropShadow"/>
<feBlend mode="normal" in="SourceGraphic" in2="effect1_dropShadow" result="shape"/>
</filter>
<filter id="filter2_d" x="77.3187" y="11.3188" width="13.9268" height="13.9267" filterUnits="userSpaceOnUse" color-interpolation-filters="sRGB">
<feFlood flood-opacity="0" result="BackgroundImageFix"/>
<feColorMatrix in="SourceAlpha" type="matrix" values="0 0 0 0 0 0 0 0 0 0 0 0 0 0 0 0 0 0 127 0"/>
<feOffset/>
<feGaussianBlur stdDeviation="2"/>
<feColorMatrix type="matrix" values="0 0 0 0 0.980392 0 0 0 0 0.835294 0 0 0 0 0.752941 0 0 0 0.8 0"/>
<feBlend mode="normal" in2="BackgroundImageFix" result="effect1_dropShadow"/>
<feBlend mode="normal" in="SourceGraphic" in2="effect1_dropShadow" result="shape"/>
</filter>
<filter id="filter3_d" x="11.3187" y="11.3188" width="13.9268" height="13.9267" filterUnits="userSpaceOnUse" color-interpolation-filters="sRGB">
<feFlood flood-opacity="0" result="BackgroundImageFix"/>
<feColorMatrix in="SourceAlpha" type="matrix" values="0 0 0 0 0 0 0 0 0 0 0 0 0 0 0 0 0 0 127 0"/>
<feOffset/>
<feGaussianBlur stdDeviation="2"/>
<feColorMatrix type="matrix" values="0 0 0 0 0.980392 0 0 0 0 0.835294 0 0 0 0 0.752941 0 0 0 0.8 0"/>
<feBlend mode="normal" in2="BackgroundImageFix" result="effect1_dropShadow"/>
<feBlend mode="normal" in="SourceGraphic" in2="effect1_dropShadow" result="shape"/>
</filter>
<filter id="filter4_d" x="44.3187" y="87.6743" width="13.9268" height="13.9268" filterUnits="userSpaceOnUse" color-interpolation-filters="sRGB">
<feFlood flood-opacity="0" result="BackgroundImageFix"/>
<feColorMatrix in="SourceAlpha" type="matrix" values="0 0 0 0 0 0 0 0 0 0 0 0 0 0 0 0 0 0 127 0"/>
<feOffset/>
<feGaussianBlur stdDeviation="2"/>
<feColorMatrix type="matrix" values="0 0 0 0 0.980392 0 0 0 0 0.835294 0 0 0 0 0.752941 0 0 0 0.8 0"/>
<feBlend mode="normal" in2="BackgroundImageFix" result="effect1_dropShadow"/>
<feBlend mode="normal" in="SourceGraphic" in2="effect1_dropShadow" result="shape"/>
</filter>
<filter id="filter5_d" x="87.6739" y="44.3188" width="13.9268" height="13.9268" filterUnits="userSpaceOnUse" color-interpolation-filters="sRGB">
<feFlood flood-opacity="0" result="BackgroundImageFix"/>
<feColorMatrix in="SourceAlpha" type="matrix" values="0 0 0 0 0 0 0 0 0 0 0 0 0 0 0 0 0 0 127 0"/>
<feOffset/>
<feGaussianBlur stdDeviation="2"/>
<feColorMatrix type="matrix" values="0 0 0 0 0.980392 0 0 0 0 0.835294 0 0 0 0 0.752941 0 0 0 0.8 0"/>
<feBlend mode="normal" in2="BackgroundImageFix" result="effect1_dropShadow"/>
<feBlend mode="normal" in="SourceGraphic" in2="effect1_dropShadow" result="shape"/>
</filter>
<filter id="filter6_d" x="44.3187" y="0.963379" width="13.9268" height="13.9268" filterUnits="userSpaceOnUse" color-interpolation-filters="sRGB">
<feFlood flood-opacity="0" result="BackgroundImageFix"/>
<feColorMatrix in="SourceAlpha" type="matrix" values="0 0 0 0 0 0 0 0 0 0 0 0 0 0 0 0 0 0 127 0"/>
<feOffset/>
<feGaussianBlur stdDeviation="2"/>
<feColorMatrix type="matrix" values="0 0 0 0 0.980392 0 0 0 0 0.835294 0 0 0 0 0.752941 0 0 0 0.8 0"/>
<feBlend mode="normal" in2="BackgroundImageFix" result="effect1_dropShadow"/>
<feBlend mode="normal" in="SourceGraphic" in2="effect1_dropShadow" result="shape"/>
</filter>
<filter id="filter7_d" x="0.963364" y="44.3188" width="13.9268" height="13.9268" filterUnits="userSpaceOnUse" color-interpolation-filters="sRGB">
<feFlood flood-opacity="0" result="BackgroundImageFix"/>
<feColorMatrix in="SourceAlpha" type="matrix" values="0 0 0 0 0 0 0 0 0 0 0 0 0 0 0 0 0 0 127 0"/>
<feOffset/>
<feGaussianBlur stdDeviation="2"/>
<feColorMatrix type="matrix" values="0 0 0 0 0.980392 0 0 0 0 0.835294 0 0 0 0 0.752941 0 0 0 0.8 0"/>
<feBlend mode="normal" in2="BackgroundImageFix" result="effect1_dropShadow"/>
<feBlend mode="normal" in="SourceGraphic" in2="effect1_dropShadow" result="shape"/>
</filter>
<filter id="filter8_d" x="52.8187" y="38.8188" width="10.9268" height="10.9268" filterUnits="userSpaceOnUse" color-interpolation-filters="sRGB">
<feFlood flood-opacity="0" result="BackgroundImageFix"/>
<feColorMatrix in="SourceAlpha" type="matrix" values="0 0 0 0 0 0 0 0 0 0 0 0 0 0 0 0 0 0 127 0"/>
<feOffset/>
<feGaussianBlur stdDeviation="2"/>
<feColorMatrix type="matrix" values="0 0 0 0 0.980392 0 0 0 0 0.835294 0 0 0 0 0.752941 0 0 0 0.8 0"/>
<feBlend mode="normal" in2="BackgroundImageFix" result="effect1_dropShadow"/>
<feBlend mode="normal" in="SourceGraphic" in2="effect1_dropShadow" result="shape"/>
</filter>
<filter id="filter9_d" x="38.8187" y="38.8188" width="10.9268" height="10.9268" filterUnits="userSpaceOnUse" color-interpolation-filters="sRGB">
<feFlood flood-opacity="0" result="BackgroundImageFix"/>
<feColorMatrix in="SourceAlpha" type="matrix" values="0 0 0 0 0 0 0 0 0 0 0 0 0 0 0 0 0 0 127 0"/>
<feOffset/>
<feGaussianBlur stdDeviation="2"/>
<feColorMatrix type="matrix" values="0 0 0 0 0.980392 0 0 0 0 0.835294 0 0 0 0 0.752941 0 0 0 0.8 0"/>
<feBlend mode="normal" in2="BackgroundImageFix" result="effect1_dropShadow"/>
<feBlend mode="normal" in="SourceGraphic" in2="effect1_dropShadow" result="shape"/>
</filter>
<filter id="filter10_d" x="38.8187" y="52.8188" width="10.9268" height="10.9268" filterUnits="userSpaceOnUse" color-interpolation-filters="sRGB">
<feFlood flood-opacity="0" result="BackgroundImageFix"/>
<feColorMatrix in="SourceAlpha" type="matrix" values="0 0 0 0 0 0 0 0 0 0 0 0 0 0 0 0 0 0 127 0"/>
<feOffset/>
<feGaussianBlur stdDeviation="2"/>
<feColorMatrix type="matrix" values="0 0 0 0 0.980392 0 0 0 0 0.835294 0 0 0 0 0.752941 0 0 0 0.8 0"/>
<feBlend mode="normal" in2="BackgroundImageFix" result="effect1_dropShadow"/>
<feBlend mode="normal" in="SourceGraphic" in2="effect1_dropShadow" result="shape"/>
</filter>
<filter id="filter11_d" x="52.8187" y="52.8188" width="10.9268" height="10.9268" filterUnits="userSpaceOnUse" color-interpolation-filters="sRGB">
<feFlood flood-opacity="0" result="BackgroundImageFix"/>
<feColorMatrix in="SourceAlpha" type="matrix" values="0 0 0 0 0 0 0 0 0 0 0 0 0 0 0 0 0 0 127 0"/>
<feOffset/>
<feGaussianBlur stdDeviation="2"/>
<feColorMatrix type="matrix" values="0 0 0 0 0.980392 0 0 0 0 0.835294 0 0 0 0 0.752941 0 0 0 0.8 0"/>
<feBlend mode="normal" in2="BackgroundImageFix" result="effect1_dropShadow"/>
<feBlend mode="normal" in="SourceGraphic" in2="effect1_dropShadow" result="shape"/>
</filter>
<filter id="filter12_d" x="45.8187" y="35.9194" width="10.9268" height="10.9268" filterUnits="userSpaceOnUse" color-interpolation-filters="sRGB">
<feFlood flood-opacity="0" result="BackgroundImageFix"/>
<feColorMatrix in="SourceAlpha" type="matrix" values="0 0 0 0 0 0 0 0 0 0 0 0 0 0 0 0 0 0 127 0"/>
<feOffset/>
<feGaussianBlur stdDeviation="2"/>
<feColorMatrix type="matrix" values="0 0 0 0 0.980392 0 0 0 0 0.835294 0 0 0 0 0.752941 0 0 0 0.8 0"/>
<feBlend mode="normal" in2="BackgroundImageFix" result="effect1_dropShadow"/>
<feBlend mode="normal" in="SourceGraphic" in2="effect1_dropShadow" result="shape"/>
</filter>
<filter id="filter13_d" x="35.9192" y="45.8188" width="10.9268" height="10.9268" filterUnits="userSpaceOnUse" color-interpolation-filters="sRGB">
<feFlood flood-opacity="0" result="BackgroundImageFix"/>
<feColorMatrix in="SourceAlpha" type="matrix" values="0 0 0 0 0 0 0 0 0 0 0 0 0 0 0 0 0 0 127 0"/>
<feOffset/>
<feGaussianBlur stdDeviation="2"/>
<feColorMatrix type="matrix" values="0 0 0 0 0.980392 0 0 0 0 0.835294 0 0 0 0 0.752941 0 0 0 0.8 0"/>
<feBlend mode="normal" in2="BackgroundImageFix" result="effect1_dropShadow"/>
<feBlend mode="normal" in="SourceGraphic" in2="effect1_dropShadow" result="shape"/>
</filter>
<filter id="filter14_d" x="45.8187" y="55.7183" width="10.9268" height="10.9268" filterUnits="userSpaceOnUse" color-interpolation-filters="sRGB">
<feFlood flood-opacity="0" result="BackgroundImageFix"/>
<feColorMatrix in="SourceAlpha" type="matrix" values="0 0 0 0 0 0 0 0 0 0 0 0 0 0 0 0 0 0 127 0"/>
<feOffset/>
<feGaussianBlur stdDeviation="2"/>
<feColorMatrix type="matrix" values="0 0 0 0 0.980392 0 0 0 0 0.835294 0 0 0 0 0.752941 0 0 0 0.8 0"/>
<feBlend mode="normal" in2="BackgroundImageFix" result="effect1_dropShadow"/>
<feBlend mode="normal" in="SourceGraphic" in2="effect1_dropShadow" result="shape"/>
</filter>
<filter id="filter15_d" x="55.7181" y="45.8188" width="10.9268" height="10.9268" filterUnits="userSpaceOnUse" color-interpolation-filters="sRGB">
<feFlood flood-opacity="0" result="BackgroundImageFix"/>
<feColorMatrix in="SourceAlpha" type="matrix" values="0 0 0 0 0 0 0 0 0 0 0 0 0 0 0 0 0 0 127 0"/>
<feOffset/>
<feGaussianBlur stdDeviation="2"/>
<feColorMatrix type="matrix" values="0 0 0 0 0.980392 0 0 0 0 0.835294 0 0 0 0 0.752941 0 0 0 0.8 0"/>
<feBlend mode="normal" in2="BackgroundImageFix" result="effect1_dropShadow"/>
<feBlend mode="normal" in="SourceGraphic" in2="effect1_dropShadow" result="shape"/>
</filter>
</defs>
</svg>
