<svg width="75" height="75" viewBox="0 0 75 75" fill="none" xmlns="http://www.w3.org/2000/svg">
<circle opacity="0.2" r="1.71338" transform="matrix(-0.707108 -0.707106 0.707108 -0.707106 6.06952 68.0696)" fill="white" stroke="white" stroke-width="0.5"/>
<g filter="url(#filter0_d)">
<circle r="1.46338" transform="matrix(-0.707108 -0.707106 0.707108 -0.707106 6.06952 68.0696)" fill="white"/>
</g>
<circle opacity="0.2" r="1.71338" transform="matrix(-0.707108 -0.707106 0.707108 -0.707106 27.0695 68.0696)" fill="white" stroke="white" stroke-width="0.5"/>
<circle opacity="0.2" r="1.71338" transform="matrix(-0.707108 -0.707106 0.707108 -0.707106 48.0695 68.0696)" fill="white" stroke="white" stroke-width="0.5"/>
<circle opacity="0.2" r="1.71338" transform="matrix(-0.707108 -0.707106 0.707108 -0.707106 69.0695 68.0696)" fill="white" stroke="white" stroke-width="0.5"/>
<circle opacity="0.2" r="1.71338" transform="matrix(-0.707108 -0.707106 0.707108 -0.707106 69.0695 47.0696)" fill="white" stroke="white" stroke-width="0.5"/>
<circle opacity="0.2" r="1.71338" transform="matrix(-0.707108 -0.707106 0.707108 -0.707106 69.0695 26.0696)" fill="white" stroke="white" stroke-width="0.5"/>
<circle opacity="0.2" r="1.71338" transform="matrix(-0.707108 -0.707106 0.707108 -0.707106 69.0695 5.06964)" fill="white" stroke="white" stroke-width="0.5"/>
<g filter="url(#filter1_d)">
<circle r="1.46338" transform="matrix(-0.707108 -0.707106 0.707108 -0.707106 69.0695 5.06964)" fill="white"/>
</g>
<circle opacity="0.2" r="1.71338" transform="matrix(-0.707108 -0.707106 0.707108 -0.707106 48.0695 5.06964)" fill="white" stroke="white" stroke-width="0.5"/>
<g filter="url(#filter2_d)">
<circle r="1.46337" transform="matrix(-0.707108 -0.707106 0.707108 -0.707106 48.0695 5.06964)" fill="white"/>
<circle r="1.56337" transform="matrix(-0.707108 -0.707106 0.707108 -0.707106 48.0695 5.06964)" stroke="#FAD5C0" stroke-width="0.2"/>
</g>
<circle opacity="0.2" r="1.71338" transform="matrix(-0.707108 -0.707106 0.707108 -0.707106 27.0695 5.06964)" fill="white" stroke="white" stroke-width="0.5"/>
<circle opacity="0.2" r="1.71338" transform="matrix(-0.707108 -0.707106 0.707108 -0.707106 6.06952 5.06964)" fill="white" stroke="white" stroke-width="0.5"/>
<circle opacity="0.2" r="1.71338" transform="matrix(-0.707108 -0.707106 0.707108 -0.707106 6.06952 26.0696)" fill="white" stroke="white" stroke-width="0.5"/>
<g filter="url(#filter3_d)">
<circle r="1.46337" transform="matrix(-0.707108 -0.707106 0.707108 -0.707106 6.06952 26.0696)" fill="white"/>
<circle r="1.56337" transform="matrix(-0.707108 -0.707106 0.707108 -0.707106 6.06952 26.0696)" stroke="#FAD5C0" stroke-width="0.2"/>
</g>
<circle opacity="0.2" r="1.71338" transform="matrix(-0.707108 -0.707106 0.707108 -0.707106 6.06952 47.0696)" fill="white" stroke="white" stroke-width="0.5"/>
<g filter="url(#filter4_d)">
<circle r="1.46338" transform="matrix(-0.707108 -0.707106 0.707108 -0.707106 6.06952 47.0696)" fill="white"/>
</g>
<circle opacity="0.2" r="1.71338" transform="matrix(-0.707108 -0.707106 0.707108 -0.707106 27.0695 47.0696)" fill="white" stroke="white" stroke-width="0.5"/>
<g filter="url(#filter5_d)">
<circle r="1.46337" transform="matrix(-0.707108 -0.707106 0.707108 -0.707106 27.0695 47.0696)" fill="#FBD5A9"/>
<circle r="1.61337" transform="matrix(-0.707108 -0.707106 0.707108 -0.707106 27.0695 47.0696)" stroke="#FBD5A9" stroke-width="0.3"/>
</g>
<circle opacity="0.2" r="1.71338" transform="matrix(-0.707108 -0.707106 0.707108 -0.707106 48.0695 47.0696)" fill="white" stroke="white" stroke-width="0.5"/>
<circle opacity="0.2" r="1.71338" transform="matrix(-0.707108 -0.707106 0.707108 -0.707106 48.0695 26.0696)" fill="white" stroke="white" stroke-width="0.5"/>
<g filter="url(#filter6_d)">
<circle r="1.46337" transform="matrix(-0.707108 -0.707106 0.707108 -0.707106 48.0695 26.0696)" fill="#FBD5A9"/>
<circle r="1.71337" transform="matrix(-0.707108 -0.707106 0.707108 -0.707106 48.0695 26.0696)" stroke="#FBD5A9" stroke-width="0.5"/>
</g>
<circle opacity="0.2" r="1.71338" transform="matrix(-0.707108 -0.707106 0.707108 -0.707106 27.0695 26.0696)" fill="white" stroke="white" stroke-width="0.5"/>
<g filter="url(#filter7_d)">
<circle r="1.46338" transform="matrix(-0.707107 -0.707106 0.707107 -0.707106 27.0695 26.0696)" fill="#FBD5A9"/>
<circle r="2.06338" transform="matrix(-0.707107 -0.707106 0.707107 -0.707106 27.0695 26.0696)" stroke="#FBD5A9" stroke-width="1.2"/>
</g>
<circle opacity="0.2" r="1.46337" transform="matrix(-4.37114e-08 -1 1 3.16124e-06 16.4634 57.5366)" fill="white"/>
<circle opacity="0.2" r="1.46337" transform="matrix(-4.37114e-08 -1 1 3.16124e-06 16.4634 36.5366)" fill="white"/>
<circle opacity="0.2" r="1.46337" transform="matrix(-4.37114e-08 -1 1 3.16124e-06 16.4634 15.5366)" fill="white"/>
<circle opacity="0.2" r="1.46337" transform="matrix(-4.37114e-08 -1 1 3.16124e-06 37.4634 57.5366)" fill="white"/>
<circle opacity="0.2" r="1.46337" transform="matrix(-4.37114e-08 -1 1 3.16124e-06 58.4634 57.5366)" fill="white"/>
<circle opacity="0.2" r="1.46337" transform="matrix(-4.37114e-08 -1 1 3.16124e-06 58.4634 36.5366)" fill="white"/>
<circle opacity="0.2" r="1.46337" transform="matrix(-4.37114e-08 -1 1 3.16124e-06 58.4634 15.5366)" fill="white"/>
<circle opacity="0.2" r="1.46337" transform="matrix(-4.37114e-08 -1 1 3.16124e-06 37.4634 15.5366)" fill="white"/>
<circle opacity="0.2" r="1.46337" transform="matrix(-4.37114e-08 -1 1 3.16124e-06 37.4634 36.5366)" fill="white"/>
<defs>
<filter id="filter0_d" x="0.60614" y="63.6064" width="10.9268" height="10.9267" filterUnits="userSpaceOnUse" color-interpolation-filters="sRGB">
<feFlood flood-opacity="0" result="BackgroundImageFix"/>
<feColorMatrix in="SourceAlpha" type="matrix" values="0 0 0 0 0 0 0 0 0 0 0 0 0 0 0 0 0 0 127 0"/>
<feOffset dy="1"/>
<feGaussianBlur stdDeviation="2"/>
<feColorMatrix type="matrix" values="0 0 0 0 1 0 0 0 0 1 0 0 0 0 1 0 0 0 0.25 0"/>
<feBlend mode="normal" in2="BackgroundImageFix" result="effect1_dropShadow"/>
<feBlend mode="normal" in="SourceGraphic" in2="effect1_dropShadow" result="shape"/>
</filter>
<filter id="filter1_d" x="63.6061" y="0.606445" width="10.9268" height="10.9267" filterUnits="userSpaceOnUse" color-interpolation-filters="sRGB">
<feFlood flood-opacity="0" result="BackgroundImageFix"/>
<feColorMatrix in="SourceAlpha" type="matrix" values="0 0 0 0 0 0 0 0 0 0 0 0 0 0 0 0 0 0 127 0"/>
<feOffset dy="1"/>
<feGaussianBlur stdDeviation="2"/>
<feColorMatrix type="matrix" values="0 0 0 0 1 0 0 0 0 1 0 0 0 0 1 0 0 0 0.25 0"/>
<feBlend mode="normal" in2="BackgroundImageFix" result="effect1_dropShadow"/>
<feBlend mode="normal" in="SourceGraphic" in2="effect1_dropShadow" result="shape"/>
</filter>
<filter id="filter2_d" x="42.4061" y="0.40625" width="11.3268" height="11.3267" filterUnits="userSpaceOnUse" color-interpolation-filters="sRGB">
<feFlood flood-opacity="0" result="BackgroundImageFix"/>
<feColorMatrix in="SourceAlpha" type="matrix" values="0 0 0 0 0 0 0 0 0 0 0 0 0 0 0 0 0 0 127 0"/>
<feOffset dy="1"/>
<feGaussianBlur stdDeviation="2"/>
<feColorMatrix type="matrix" values="0 0 0 0 1 0 0 0 0 1 0 0 0 0 1 0 0 0 0.25 0"/>
<feBlend mode="normal" in2="BackgroundImageFix" result="effect1_dropShadow"/>
<feBlend mode="normal" in="SourceGraphic" in2="effect1_dropShadow" result="shape"/>
</filter>
<filter id="filter3_d" x="0.406128" y="21.4062" width="11.3268" height="11.3267" filterUnits="userSpaceOnUse" color-interpolation-filters="sRGB">
<feFlood flood-opacity="0" result="BackgroundImageFix"/>
<feColorMatrix in="SourceAlpha" type="matrix" values="0 0 0 0 0 0 0 0 0 0 0 0 0 0 0 0 0 0 127 0"/>
<feOffset dy="1"/>
<feGaussianBlur stdDeviation="2"/>
<feColorMatrix type="matrix" values="0 0 0 0 1 0 0 0 0 1 0 0 0 0 1 0 0 0 0.25 0"/>
<feBlend mode="normal" in2="BackgroundImageFix" result="effect1_dropShadow"/>
<feBlend mode="normal" in="SourceGraphic" in2="effect1_dropShadow" result="shape"/>
</filter>
<filter id="filter4_d" x="0.60614" y="42.6064" width="10.9268" height="10.9267" filterUnits="userSpaceOnUse" color-interpolation-filters="sRGB">
<feFlood flood-opacity="0" result="BackgroundImageFix"/>
<feColorMatrix in="SourceAlpha" type="matrix" values="0 0 0 0 0 0 0 0 0 0 0 0 0 0 0 0 0 0 127 0"/>
<feOffset dy="1"/>
<feGaussianBlur stdDeviation="2"/>
<feColorMatrix type="matrix" values="0 0 0 0 1 0 0 0 0 1 0 0 0 0 1 0 0 0 0.25 0"/>
<feBlend mode="normal" in2="BackgroundImageFix" result="effect1_dropShadow"/>
<feBlend mode="normal" in="SourceGraphic" in2="effect1_dropShadow" result="shape"/>
</filter>
<filter id="filter5_d" x="21.3062" y="41.3062" width="11.5268" height="11.5267" filterUnits="userSpaceOnUse" color-interpolation-filters="sRGB">
<feFlood flood-opacity="0" result="BackgroundImageFix"/>
<feColorMatrix in="SourceAlpha" type="matrix" values="0 0 0 0 0 0 0 0 0 0 0 0 0 0 0 0 0 0 127 0"/>
<feOffset/>
<feGaussianBlur stdDeviation="2"/>
<feColorMatrix type="matrix" values="0 0 0 0 0.980392 0 0 0 0 0.835294 0 0 0 0 0.752941 0 0 0 0.8 0"/>
<feBlend mode="normal" in2="BackgroundImageFix" result="effect1_dropShadow"/>
<feBlend mode="normal" in="SourceGraphic" in2="effect1_dropShadow" result="shape"/>
</filter>
<filter id="filter6_d" x="42.1061" y="20.1064" width="11.9268" height="11.9267" filterUnits="userSpaceOnUse" color-interpolation-filters="sRGB">
<feFlood flood-opacity="0" result="BackgroundImageFix"/>
<feColorMatrix in="SourceAlpha" type="matrix" values="0 0 0 0 0 0 0 0 0 0 0 0 0 0 0 0 0 0 127 0"/>
<feOffset/>
<feGaussianBlur stdDeviation="2"/>
<feColorMatrix type="matrix" values="0 0 0 0 0.980392 0 0 0 0 0.835294 0 0 0 0 0.752941 0 0 0 0.8 0"/>
<feBlend mode="normal" in2="BackgroundImageFix" result="effect1_dropShadow"/>
<feBlend mode="normal" in="SourceGraphic" in2="effect1_dropShadow" result="shape"/>
</filter>
<filter id="filter7_d" x="20.4061" y="19.4062" width="13.3268" height="13.3268" filterUnits="userSpaceOnUse" color-interpolation-filters="sRGB">
<feFlood flood-opacity="0" result="BackgroundImageFix"/>
<feColorMatrix in="SourceAlpha" type="matrix" values="0 0 0 0 0 0 0 0 0 0 0 0 0 0 0 0 0 0 127 0"/>
<feOffset/>
<feGaussianBlur stdDeviation="2"/>
<feColorMatrix type="matrix" values="0 0 0 0 0.980392 0 0 0 0 0.835294 0 0 0 0 0.752941 0 0 0 0.8 0"/>
<feBlend mode="normal" in2="BackgroundImageFix" result="effect1_dropShadow"/>
<feBlend mode="normal" in="SourceGraphic" in2="effect1_dropShadow" result="shape"/>
</filter>
</defs>
</svg>
