<svg width="75" height="75" viewBox="0 0 75 75" fill="none" xmlns="http://www.w3.org/2000/svg">
<path d="M0 0H75V75H0V0Z" fill="white"/>
<path d="M7 20C7 14.4772 11.4772 10 17 10H57C62.5228 10 67 14.4772 67 20V60C67 65.5228 62.5228 70 57 70H17C11.4772 70 7 65.5228 7 60V20Z" fill="#6984A4"/>
<path d="M48.5097 10.1554C48.5415 9.92843 48.5638 9.72376 48.575 9.54743C55.7347 10.1114 60.3052 10.2298 63.1158 10.1431C64.5585 10.0986 65.5541 9.99972 66.2043 9.87408C66.2614 9.86305 66.3166 9.85167 66.3698 9.83993C65.6011 14.686 63.3507 24.305 58.6765 33.205C53.6843 42.7105 45.9936 51.2791 34.4965 52.5028C30.9124 52.8843 27.132 53.5192 22.6478 55.9048C18.4001 58.1645 13.5484 61.9799 7.62681 68.5864C7.75727 67.8312 7.98865 66.8114 8.32753 65.6011C9.02388 63.1144 10.1671 59.8489 11.7974 56.4603C15.0709 49.6565 20.2479 42.4808 27.6025 39.9733C35.8299 37.1682 41.2549 29.3849 44.5083 22.4081C46.1407 18.9075 47.2408 15.5794 47.8814 13.1218C48.2013 11.894 48.4088 10.8753 48.5097 10.1554Z" fill="#FEFEFE"/>
<path d="M48.5097 10.1554C48.5415 9.92843 48.5638 9.72376 48.575 9.54743C55.7347 10.1114 60.3052 10.2298 63.1158 10.1431C64.5585 10.0986 65.5541 9.99972 66.2043 9.87408C66.2614 9.86305 66.3166 9.85167 66.3698 9.83993C65.6011 14.686 63.3507 24.305 58.6765 33.205C53.6843 42.7105 45.9936 51.2791 34.4965 52.5028C30.9124 52.8843 27.132 53.5192 22.6478 55.9048C18.4001 58.1645 13.5484 61.9799 7.62681 68.5864C7.75727 67.8312 7.98865 66.8114 8.32753 65.6011C9.02388 63.1144 10.1671 59.8489 11.7974 56.4603C15.0709 49.6565 20.2479 42.4808 27.6025 39.9733C35.8299 37.1682 41.2549 29.3849 44.5083 22.4081C46.1407 18.9075 47.2408 15.5794 47.8814 13.1218C48.2013 11.894 48.4088 10.8753 48.5097 10.1554Z" stroke="white"/>
<path d="M48.5097 10.1554C48.5415 9.92843 48.5638 9.72376 48.575 9.54743C55.7347 10.1114 60.3052 10.2298 63.1158 10.1431C64.5585 10.0986 65.5541 9.99972 66.2043 9.87408C66.2614 9.86305 66.3166 9.85167 66.3698 9.83993C65.6011 14.686 63.3507 24.305 58.6765 33.205C53.6843 42.7105 45.9936 51.2791 34.4965 52.5028C30.9124 52.8843 27.132 53.5192 22.6478 55.9048C18.4001 58.1645 13.5484 61.9799 7.62681 68.5864C7.75727 67.8312 7.98865 66.8114 8.32753 65.6011C9.02388 63.1144 10.1671 59.8489 11.7974 56.4603C15.0709 49.6565 20.2479 42.4808 27.6025 39.9733C35.8299 37.1682 41.2549 29.3849 44.5083 22.4081C46.1407 18.9075 47.2408 15.5794 47.8814 13.1218C48.2013 11.894 48.4088 10.8753 48.5097 10.1554Z" stroke="white"/>
<path d="M48.5097 10.1554C48.5415 9.92843 48.5638 9.72376 48.575 9.54743C55.7347 10.1114 60.3052 10.2298 63.1158 10.1431C64.5585 10.0986 65.5541 9.99972 66.2043 9.87408C66.2614 9.86305 66.3166 9.85167 66.3698 9.83993C65.6011 14.686 63.3507 24.305 58.6765 33.205C53.6843 42.7105 45.9936 51.2791 34.4965 52.5028C30.9124 52.8843 27.132 53.5192 22.6478 55.9048C18.4001 58.1645 13.5484 61.9799 7.62681 68.5864C7.75727 67.8312 7.98865 66.8114 8.32753 65.6011C9.02388 63.1144 10.1671 59.8489 11.7974 56.4603C15.0709 49.6565 20.2479 42.4808 27.6025 39.9733C35.8299 37.1682 41.2549 29.3849 44.5083 22.4081C46.1407 18.9075 47.2408 15.5794 47.8814 13.1218C48.2013 11.894 48.4088 10.8753 48.5097 10.1554Z" stroke="url(#paint0_linear)"/>
<path d="M53.4228 5.10874C53.4759 4.7246 53.5108 4.39774 53.5254 4.14145C56.8528 4.40297 59.2597 4.44596 61.0105 4.35716C62.859 4.26341 64.0069 4.02159 64.7435 3.71423C64.9534 3.62667 65.1299 3.53368 65.2796 3.4378C64.4329 8.59941 62.1129 18.6232 57.6195 27.979C52.6251 38.3776 45.0321 47.779 33.9496 49.003C30.5021 49.3838 27.5424 49.7662 23.8716 51.784C20.4475 53.6662 16.4287 56.9566 10.7763 62.9379C10.9394 62.4329 11.1663 61.8257 11.4586 61.1386C12.262 59.2508 13.5462 56.7917 15.314 54.2432C18.8557 49.1372 24.294 43.7346 31.6333 41.7775C35.7622 40.6764 39.2281 37.694 42.0836 33.9149C44.9421 30.1318 47.2228 25.5061 48.9705 21.035C50.7193 16.5611 51.942 12.2223 52.6776 8.99948C53.0452 7.3886 53.2925 6.05028 53.4228 5.10874Z" fill="#FF9900"/>
<path d="M53.4228 5.10874C53.4759 4.7246 53.5108 4.39774 53.5254 4.14145C56.8528 4.40297 59.2597 4.44596 61.0105 4.35716C62.859 4.26341 64.0069 4.02159 64.7435 3.71423C64.9534 3.62667 65.1299 3.53368 65.2796 3.4378C64.4329 8.59941 62.1129 18.6232 57.6195 27.979C52.6251 38.3776 45.0321 47.779 33.9496 49.003C30.5021 49.3838 27.5424 49.7662 23.8716 51.784C20.4475 53.6662 16.4287 56.9566 10.7763 62.9379C10.9394 62.4329 11.1663 61.8257 11.4586 61.1386C12.262 59.2508 13.5462 56.7917 15.314 54.2432C18.8557 49.1372 24.294 43.7346 31.6333 41.7775C35.7622 40.6764 39.2281 37.694 42.0836 33.9149C44.9421 30.1318 47.2228 25.5061 48.9705 21.035C50.7193 16.5611 51.942 12.2223 52.6776 8.99948C53.0452 7.3886 53.2925 6.05028 53.4228 5.10874Z" stroke="#FF9900"/>
<path d="M53.4228 5.10874C53.4759 4.7246 53.5108 4.39774 53.5254 4.14145C56.8528 4.40297 59.2597 4.44596 61.0105 4.35716C62.859 4.26341 64.0069 4.02159 64.7435 3.71423C64.9534 3.62667 65.1299 3.53368 65.2796 3.4378C64.4329 8.59941 62.1129 18.6232 57.6195 27.979C52.6251 38.3776 45.0321 47.779 33.9496 49.003C30.5021 49.3838 27.5424 49.7662 23.8716 51.784C20.4475 53.6662 16.4287 56.9566 10.7763 62.9379C10.9394 62.4329 11.1663 61.8257 11.4586 61.1386C12.262 59.2508 13.5462 56.7917 15.314 54.2432C18.8557 49.1372 24.294 43.7346 31.6333 41.7775C35.7622 40.6764 39.2281 37.694 42.0836 33.9149C44.9421 30.1318 47.2228 25.5061 48.9705 21.035C50.7193 16.5611 51.942 12.2223 52.6776 8.99948C53.0452 7.3886 53.2925 6.05028 53.4228 5.10874Z" stroke="#FF9900"/>
<path d="M53.4228 5.10874C53.4759 4.7246 53.5108 4.39774 53.5254 4.14145C56.8528 4.40297 59.2597 4.44596 61.0105 4.35716C62.859 4.26341 64.0069 4.02159 64.7435 3.71423C64.9534 3.62667 65.1299 3.53368 65.2796 3.4378C64.4329 8.59941 62.1129 18.6232 57.6195 27.979C52.6251 38.3776 45.0321 47.779 33.9496 49.003C30.5021 49.3838 27.5424 49.7662 23.8716 51.784C20.4475 53.6662 16.4287 56.9566 10.7763 62.9379C10.9394 62.4329 11.1663 61.8257 11.4586 61.1386C12.262 59.2508 13.5462 56.7917 15.314 54.2432C18.8557 49.1372 24.294 43.7346 31.6333 41.7775C35.7622 40.6764 39.2281 37.694 42.0836 33.9149C44.9421 30.1318 47.2228 25.5061 48.9705 21.035C50.7193 16.5611 51.942 12.2223 52.6776 8.99948C53.0452 7.3886 53.2925 6.05028 53.4228 5.10874Z" stroke="url(#paint1_linear)"/>
<defs>
<linearGradient id="paint0_linear" x1="37" y1="9" x2="37" y2="70" gradientUnits="userSpaceOnUse">
<stop stop-color="white"/>
<stop offset="1" stop-color="white" stop-opacity="0"/>
</linearGradient>
<linearGradient id="paint1_linear" x1="39.4986" y1="3.59436" x2="39.4986" y2="64.7944" gradientUnits="userSpaceOnUse">
<stop stop-color="#FF9900"/>
<stop offset="1" stop-color="#FF9900"/>
</linearGradient>
</defs>
</svg>
